<?xml version="1.0" encoding="UTF-8"?>
<svg id="Layer_1" data-name="Layer 1" xmlns="http://www.w3.org/2000/svg" viewBox="0 0 682 469">
  <defs>
    <style>
      .cls-1 {
        fill: #fff;
      }

      .cls-2 {
        fill: #2a6f73;
      }

      .cls-3 {
        fill: #3fa9ac;
        stroke: #fff;
        stroke-miterlimit: 10;
        stroke-width: 4px;
      }
    </style>
  </defs>
  <path class="cls-3" d="m638.08,101.21h-111.41c-11.22-46.21-89.14-82-183.61-82s-172.39,35.79-183.61,82H47.96c-17.63,0-31.92,14.29-31.92,31.92v286.17c0,17.63,14.29,31.92,31.92,31.92h590.12c17.63,0,31.92-14.29,31.92-31.92V133.12c0-17.63-14.29-31.92-31.92-31.92Z"/>
  <g>
    <g>
      <path class="cls-1" d="m266.05,112.75l-5.2.51c.45-2.72.96-5.49,1.54-8.31,3.31-16.08,10.83-27.2,22.33-33.04,9.55-4.85,22.02-5.95,36.08-3.18,9.13,1.8,16.09,4.64,17.95,5.44,28.72-.09,49.12,8.84,60.81,22.74l-6.4-.55c-9.98-9.79-28.99-17.71-54.88-17.53h-.51s-.47-.21-.47-.21c-.29-.13-29.55-13.2-50.49-2.55-10.17,5.17-16.85,15.21-19.86,29.82-.54,2.64-.48,4.32-.9,6.86m.51,50c1.95,7.84,4.23,11.83,8.53,17.18,8.73,10.86,22.3,16.49,40.34,16.73h.6s.52.31.52.31c.26.15,26.38,14.86,44.64,6.85,12.03-5.27,24.78-21.18,33.29-41.53,2.14-5.13,3.89-10.2,5.22-15.13l5.28-2.14c-6.17,26.63-23.06,54.79-41.92,63.06-5.92,2.59-12.41,3.14-18.68,2.6-13.96-1.21-26.79-7.84-29.61-9.38-19.2-.38-33.77-6.59-43.31-18.46-4.51-5.61-7.83-12.48-9.97-20.49l5.06.39Z"/>
      <g>
        <path class="cls-1" d="m348.3,46.98s-11.31,18.91-9.1,26.65c.06.22.38.23.47.01,1.24-3.1,7.09-16.92,14.68-21.23,0,0,.36-3.71-6.04-5.43Z"/>
        <path class="cls-1" d="m339.21,76.11c-1.06-.09-1.96-.83-2.25-1.85-2.42-8.46,8.13-26.46,9.34-28.48,0,0,.5-1.35.9-1.51s1.7.46,1.7.46c8.21,2.21,7.78,7.67,7.76,7.9,0,0,.05.95-.12,1.2s-1.05.6-1.05.6c-5.4,3.07-10.73,12.73-13.66,20.07-.41,1.03-1.43,1.68-2.53,1.62-.03,0-.06,0-.09,0Zm2.23-3.13s0,0,0,0c0,0,0,0,0,0Zm10.18-21.59c-.85-1.15-2.64-.95-3.31.31-1.17,2.18-2.37,4.61-3.45,7.06,1.97-2.85,4.25-5.52,6.77-7.36,0,0,0,0-.01-.01Z"/>
      </g>
      <path class="cls-1" d="m338.42,74.51c-.27,1.21-1.45,1.99-2.66,1.76h-.03c-10.33-1.95-17.63-9.47-21.11-21.74-2.54-8.95-2.15-17.24-2.13-17.59v-.05c.08-1.56,1.67-2.59,3.12-2.02l.05.02c28.67,11.12,22.84,39.3,22.78,39.58v.03Zm-20.91-29.51c.93,7.97,3.95,19.83,13.51,24.79,1.52.79,3.36-.32,3.36-2.04-.02-6.64-2-17.58-13.33-24.93-1.62-1.05-3.76.26-3.53,2.18Z"/>
    </g>
    <path class="cls-2" d="m316.76,192.83l.49.28c.25.14,24.94,14.04,42.2,6.48,11.37-4.98,23.43-20.02,31.47-39.25,8.26-19.76,10.22-38.72,5.24-50.72-5.72-13.78-24.05-28.42-58.36-28.17h-.48s-.44-.2-.44-.2c-.28-.13-27.94-12.48-47.72-2.41-9.61,4.89-15.93,14.37-18.77,28.19-6.48,31.46-3.82,55.66,7.69,69.99,8.26,10.27,21.08,15.59,38.13,15.82h.57Z"/>
    <g>
      <path class="cls-1" d="m174.56,148.16c-.18-1.48.47-2.71,1.66-3.66,1.56.91,3.44,1.54,5.01,1.65,1.41-6.14,3.04-12.15,4.11-14.49,1.4-2.98,3.54-4.29,6.01-4.59,5.78-.7,10.12,2.79,10.63,7.04.6,4.94-3.73,11.48-14.33,16.27-.38,1.8-1.75,4.98-2.94,7.22,13.51.62,16.81,4.28,17.23,7.74.3,2.47-.95,4.63-2.66,5.34-3.98-2.68-8.99-4.68-19.04-5.72-1.58,1.9-2.93,3.11-4.47,3.3-2.47.3-5.22-3.33-5.54-6.05-.28-2.32.92-3.57,4.63-4.02.84-.1,1.79-.17,2.88-.2.87-2.31,1.58-4.35,2.17-6.48-2.86-.05-5.13-1.39-5.37-3.36Zm13.93-2.99c4.94-2.7,7.82-6.26,7.47-9.13-.19-1.53-2.06-2.56-4.04-2.32-.64.08-1.28.61-1.66,2.86l-1.77,8.59Z"/>
      <path class="cls-1" d="m202.83,149.76c-.35-2.92,3.42-8.64,6.48-9.01,2.27-.27,2.62.94,2.85,2.86.16,1.29-.43,3.46-1.07,5.65-.97,3.58-1.42,5.24-1.29,6.37.07.54.34.71.78.66.69-.08,2.72-1.93,5.47-7.03.94-.11,2.02.56,2.14,1.55.38,3.11-6.47,12.42-11.02,12.96-2.92.35-4.06-.81-4.39-3.53-.26-2.17.04-4.27.9-7.48-.51-.89-.75-2.02-.87-3Zm6.73-22.27c1.98-.24,4.46,1.67,4.65,3.2.14,1.19-.56,3.23-2.58,6.43-1.93.23-3.48-1.03-3.83-3.9-.48-4,.18-5.54,1.76-5.73Z"/>
      <path class="cls-1" d="m238.15,124.28c1.09-.13,1.99.26,2.12,1.4.2,1.68-.99,4.28-2.19,9.69l-.52,2.32c1.57-.29,3.77-.76,4.39-.98.65.37,1.12,1.37,1.21,2.11.23,1.93-1.28,3.51-5.48,4.02l-.84.1c-.68,5.6-.9,9.18-.81,9.93.13,1.04.51,1.69,1.54,1.57,2.03-.25,5.28-3.6,8.07-8.75.94-.11,2.06.45,2.18,1.44.36,2.97-7,13.83-13.08,14.57-3.11.38-4.97-1.25-5.41-4.96-.07-.59-.14-1.54-.08-2.35-1.75,4.22-4.66,7.48-8.07,7.9-3.06.37-5.08-1.34-5.57-5.44-.17-1.43-.1-5,1.02-11.5-1,.02-1.85.02-1.98-1.06-.19-1.53.73-3.05,2.76-3.34.73-6.36,1.66-10.33,4.72-10.7,1.73-.21,3.25,1.61,3.51,3.74.19,1.58-.25,2.94-1.35,6.23l6.47-1.23c1.83-9.35,4.09-14.28,7.4-14.68Zm-15.22,30.02c.1.84.28,1.07.72,1.02,2.03-.25,5.37-6.21,6.27-11.59l-6.38.77c-.68,5.6-.71,9.06-.62,9.8Z"/>
      <path class="cls-1" d="m245.72,132.59c.08-6.78,3.11-11.21,7.01-11.68,2.13-.26,3.58.57,3.88,3.09.26,2.17-.43,4.72-3.3,12.13-.76,4.95-2.04,13.83-1.89,15.07.07.54.34.71.78.66,1.53-.19,4.11-3.35,6.19-7.67.94-.11,1.96.46,2.08,1.45.45,3.76-6.61,12.48-11.61,13.09-2.87.35-4.05-.76-4.36-3.33-.4-3.31.49-9.23.63-11.36.2-3.28.53-8.04.57-11.45Z"/>
      <path class="cls-1" d="m256.99,149.08c-.9-7.46,4.26-15.81,9.05-16.39,3.41-.41,5.48.99,5.9,4.45.5,4.15-1.53,7.66-8.12,10.01.27,2.22.86,3.41,2.79,3.17,3.36-.41,7.36-3.8,9.66-8.44,1.19-.09,1.98.61,2.08,1.4.44,3.66-6.86,12.51-13.29,13.29-4.84.59-7.43-2.16-8.08-7.5Zm8.44-11.05c-.69.08-1.82,1.93-1.75,5.43,2.71-.83,3.12-2.43,2.94-3.91-.13-1.04-.59-1.58-1.19-1.51Z"/>
      <path class="cls-1" d="m289.09,134.31c-.18-1.48.47-2.71,1.66-3.66,1.56.91,3.45,1.54,5.01,1.65,1.41-6.14,3.04-12.15,4.12-14.49,1.39-2.98,3.54-4.29,6.01-4.59,5.78-.7,10.11,2.79,10.63,7.04.6,4.94-3.73,11.48-14.33,16.27-.38,1.8-1.76,4.98-2.94,7.22,13.51.62,16.81,4.29,17.23,7.74.3,2.47-.94,4.63-2.66,5.34-3.98-2.68-8.99-4.68-19.04-5.72-1.58,1.9-2.93,3.11-4.46,3.3-2.47.3-5.22-3.33-5.54-6.05-.28-2.32.92-3.57,4.63-4.02.84-.1,1.79-.17,2.88-.2.87-2.31,1.58-4.35,2.18-6.48-2.87-.05-5.13-1.39-5.37-3.36Zm13.93-2.99c4.94-2.7,7.82-6.26,7.47-9.13-.19-1.53-2.06-2.56-4.04-2.32-.64.08-1.28.61-1.66,2.86l-1.77,8.59Z"/>
      <path class="cls-1" d="m316.58,141.87c-.9-7.46,4.26-15.81,9.05-16.39,3.41-.41,5.49.99,5.9,4.45.5,4.15-1.53,7.66-8.12,10.01.27,2.22.86,3.41,2.79,3.17,3.36-.41,7.36-3.8,9.66-8.44,1.19-.09,1.98.61,2.07,1.4.44,3.66-6.86,12.51-13.28,13.29-4.84.59-7.43-2.16-8.08-7.5Zm8.44-11.05c-.69.08-1.82,1.93-1.75,5.43,2.71-.83,3.12-2.43,2.94-3.91-.13-1.04-.59-1.58-1.19-1.51Z"/>
      <path class="cls-1" d="m362.7,119.9c3.26-.39,4.85,1.52,5.04,3.15.15,1.24-.86,2.41-3.78,4.37.87,2.25,3.51,5.84,3.88,8.91.72,5.98-3.59,8.86-8.04,9.4-3.51.42-7.09-1-7.6-5.2-.3-2.47,1.1-5.4,3.97-5.74.59-.07,1.01.03,1.39.33-.05.81,0,1.7.11,2.54.25,2.08,1.53,2.67,2.37,2.57.49-.06,1-.42.9-1.26-.22-1.83-2.43-5.57-3.64-8.54-2.69,1.43-5.45,2.61-8.39,3.57.49,1.19,1.42,3.49,1.59,4.82.64,5.29-2.81,8.66-7.56,9.24-4.1.5-9.38-1.27-10.23-8.29-.42-3.46,1.44-5.14,7.64-6.89-.59-1.58-1.06-3.38-1.2-4.57-.5-4.15,2.47-7.32,6.97-7.86,2.87-.35,4.7.69,4.98,3.06.13,1.04-.19,2.13-.72,2.79-.99-.28-1.9-.37-2.69-.28-1.04.13-1.55.49-1.44,1.38.12.99.54,1.94,1.26,3.36,2.46-.8,7.31-2.99,9.11-4.31.51-3.22,2.87-6.16,6.08-6.55Zm-19.16,21.07c-.08-.69-.87-2.65-1.63-4.37-2.37.69-3.33,1.1-3.25,1.75.23,1.93,2.64,4.04,4.13,3.86.49-.06.85-.4.75-1.24Z"/>
      <path class="cls-1" d="m380.02,119.26c-.85-7.02,8.84-15.61,14.67-16.32,3.61-.44,6.07.82,6.58,5.07.47,3.85-1.91,9.11-4.46,17.89-.85,2.96-1.03,4.74-.83,6.37.17,1.38,1.1,2.42,2.73,2.23,1.73-.21,3.11-2.08,4.71-4.98-1.11-9.14,1.96-19.49,6.5-20.04,2.13-.26,3.71.81,3.97,2.98.66,5.49-2.1,12.09-4.9,17.54.67,1.82,1.56,2.97,2.8,2.82,4.1-.5,8.86-11.35,7.67-21.14-.33-2.77-1.53-4.38-4.56-7.02.14-2.17,1.69-3.41,4.11-3.71,4.3-.52,7,3.16,7.54,7.61,1.61,13.34-5.47,29.39-15.21,30.57-2.47.3-4.76-.83-6.41-3.64-2.78,4-5.85,5.92-9.26,6.33-4.99.6-7.53-2.15-8.09-6.74-.23-1.88.08-5.57,1.48-9.76-4.51.4-8.54-1.83-9.06-6.08Zm10.42,1.6c1.57-4.85,3.13-8.5,2.92-10.28-.15-1.24-.47-1.4-1.11-1.32-1.38.17-6.18,4.46-5.76,7.97.2,1.63,1.22,2.61,3.95,3.63Z"/>
      <path class="cls-1" d="m433.69,135.73c-2.82.34-5.17-1.73-5.72-6.23-.9-7.41,4.29-15.91,9.24-16.51.69-.08,1.05-.03,1.33.19l-.2-2.88c.34-.49.96-.77,1.65-.85,3.36-.41,5.46,1.65,5.67,3.38.08.64.08,1.9-.15,3.33-.98,6.44-1.24,9.63-1.09,10.91.12.99.34,1.11.73,1.06.99-.12,3.33-2.31,5.96-7.14,1.04-.13,1.91.42,2.01,1.31.39,3.21-6.85,12.16-10.41,12.59-2.17.26-3.67-.46-4.05-3.62-.07-.54-.09-1.19-.08-1.94-1.04,4.69-3.16,6.2-4.89,6.41Zm4.99-19.31c-2.28,1.88-4.16,6.27-3.7,10.07.22,1.83.84,1.95,1.53,1.87s1.32-.66,1.83-1.47l.34-10.47Z"/>
      <path class="cls-1" d="m457.24,133.94c-3.86.47-7.78-1.72-8.37-6.61-.35-2.92-.14-7.81,2.28-8.1,1.73-.21,3.38,1.85,3.53,3.08.13,1.04-.23,1.83-.96,2.87.66,2.13,2.52,3.41,3.65,3.27.49-.06,1-.42.9-1.26-.3-2.52-4.11-9.13-4.48-12.19-.25-2.07.62-3.99,3.15-5.45-.16-.48-.27-1.02-.33-1.51-.59-4.89,2.06-8.72,7.34-9.36,3.16-.38,6.25.25,10.47,1.54.91-1.16,1.93-1.89,3.11-2.03,1.09-.13,1.99.26,2.12,1.4.19,1.53-1.3,4.22-2.34,9.66,1.53-.23,3.58-.63,4.21-.86.65.37,1.1,1.22,1.19,1.96.23,1.88-.83,3.46-2.47,3.66-1.14.14-2.18.21-3.64.14-.68,5.6-.74,8.41-.65,9.15.14,1.19.51,1.69,1.54,1.57,2.03-.25,5.15-3.03,7.94-8.18.94-.11,2.06.45,2.18,1.44.35,2.92-6.14,12.68-11.82,13.36-3.81.46-6.61-1.21-7.16-5.75-.17-1.43-.04-4.51,1.08-11.01-1,.02-1.85.02-1.98-1.06-.19-1.53.74-3.05,2.76-3.34.5-2.07,1.08-3.94,1.63-5.56-2.99-.29-6.02-.43-7.6-.23-2.62.32-3.46,1.67-3.27,4.06,2.87-.35,4.57.05,4.75,1.53.23,1.88-1.46,4.94-3.34,5.17-1.04.13-2.17-.49-3.14-1.48.39.75.89,1.55,1.44,2.38,2.58,3.95,3.83,6.76,4.08,8.88.62,5.14-2.91,8.28-7.8,8.87Z"/>
      <path class="cls-1" d="m483.93,121.64c-.9-7.46,4.26-15.81,9.05-16.39,3.41-.41,5.49.99,5.9,4.45.5,4.15-1.53,7.66-8.12,10.01.27,2.22.86,3.41,2.79,3.17,3.36-.41,7.36-3.8,9.66-8.44,1.19-.09,1.98.61,2.07,1.4.44,3.66-6.86,12.51-13.28,13.29-4.84.59-7.43-2.16-8.08-7.5Zm8.44-11.05c-.69.08-1.82,1.93-1.75,5.43,2.71-.83,3.12-2.43,2.94-3.91-.13-1.04-.59-1.58-1.19-1.51Z"/>
    </g>
    <path class="cls-1" d="m342.73,183.78l-2.97,6.34c-.29.61.03,1.35.68,1.54,4.15,1.21,18.47,3.44,33.38-16.97.72-.98-.44-2.25-1.48-1.61-6.36,3.92-18.16,10.18-28.6,10.07-.43,0-.83.23-1.01.63Z"/>
    <path class="cls-1" d="m292.35,97.3l-5.04-.48c-.49-.05-.86-.47-.78-.91.52-2.77,3.56-11.64,21.46-13.14.86-.07,1.32,1.02.58,1.39-4.54,2.27-12.29,6.82-15.49,12.78-.13.25-.41.39-.72.36Z"/>
  </g>
</svg>