<?xml version="1.0" encoding="UTF-8"?>
<svg id="Layer_1" data-name="Layer 1" xmlns="http://www.w3.org/2000/svg" viewBox="0 0 271.5 149.5">
  <defs>
    <style>
      .cls-1 {
        fill: #fff;
      }

      .cls-2 {
        fill: #2a6f73;
      }
    </style>
  </defs>
  <g>
    <path class="cls-1" d="m80.23,66.12l-4.09.4c.35-2.14.75-4.32,1.21-6.53,2.6-12.64,8.51-21.38,17.55-25.98,7.51-3.81,17.31-4.68,28.36-2.5,7.18,1.42,12.65,3.65,14.11,4.28,22.58-.07,38.61,6.95,47.8,17.88l-5.03-.44c-7.85-7.7-22.79-13.92-43.14-13.78h-.4s-.37-.16-.37-.16c-.23-.1-23.23-10.38-39.69-2.01-7.99,4.07-13.25,11.95-15.61,23.45-.43,2.08-.38,3.39-.71,5.39m.4,39.31c1.53,6.16,3.33,9.3,6.71,13.51,6.87,8.54,17.53,12.96,31.71,13.15h.47s.41.24.41.24c.21.12,20.74,11.68,35.09,5.39,9.46-4.14,19.48-16.65,26.17-32.64,1.68-4.03,3.05-8.02,4.1-11.89l4.15-1.68c-4.85,20.93-18.12,43.07-32.96,49.57-4.65,2.04-9.76,2.47-14.68,2.05-10.98-.95-21.06-6.16-23.28-7.38-15.09-.3-26.54-5.18-34.05-14.51-3.54-4.41-6.16-9.81-7.83-16.11l3.98.31Z"/>
    <g>
      <path class="cls-1" d="m144.89,14.42s-8.89,14.86-7.15,20.95c.05.17.3.18.37.01.97-2.44,5.57-13.3,11.54-16.69,0,0,.28-2.92-4.75-4.27Z"/>
      <path class="cls-1" d="m137.75,37.32c-.83-.07-1.54-.65-1.77-1.46-1.9-6.65,6.39-20.8,7.34-22.39,0,0,.39-1.06.71-1.19s1.34.36,1.34.36c6.45,1.74,6.12,6.03,6.1,6.21,0,0,.04.75-.09.95s-.83.47-.83.47c-4.24,2.41-8.44,10.01-10.74,15.78-.32.81-1.12,1.32-1.99,1.27-.02,0-.05,0-.07,0Zm1.75-2.46s0,0,0,0c0,0,0,0,0,0Zm8-16.98c-.67-.9-2.07-.74-2.61.25-.92,1.71-1.87,3.63-2.71,5.55,1.55-2.24,3.34-4.34,5.32-5.78,0,0,0,0,0-.01Z"/>
    </g>
    <path class="cls-1" d="m137.12,36.06c-.21.95-1.14,1.57-2.09,1.39h-.03c-8.12-1.53-13.86-7.44-16.6-17.09-2-7.04-1.69-13.55-1.68-13.82v-.04c.06-1.23,1.31-2.03,2.45-1.59h.04c22.54,8.76,17.96,30.91,17.91,31.13v.03Zm-16.44-23.2c.73,6.26,3.11,15.59,10.62,19.49,1.2.62,2.64-.25,2.64-1.6-.02-5.22-1.57-13.82-10.48-19.6-1.27-.83-2.95.21-2.78,1.71Z"/>
  </g>
  <path class="cls-2" d="m120.1,129.08l.39.22c.19.11,19.6,11.04,33.17,5.09,8.94-3.92,18.42-15.74,24.74-30.86,6.5-15.53,8.04-30.44,4.12-39.88-4.49-10.83-18.91-22.34-45.88-22.15h-.38s-.35-.16-.35-.16c-.22-.1-21.96-9.81-37.52-1.9-7.56,3.84-12.52,11.3-14.76,22.16-5.1,24.73-3,43.76,6.05,55.02,6.49,8.07,16.57,12.25,29.97,12.43h.45Z"/>
  <g>
    <path class="cls-1" d="m8.31,93.96c-.14-1.16.37-2.13,1.31-2.88,1.23.72,2.71,1.21,3.94,1.3,1.11-4.82,2.39-9.55,3.23-11.39,1.1-2.34,2.79-3.37,4.73-3.61,4.55-.55,7.95,2.19,8.36,5.53.47,3.88-2.93,9.03-11.26,12.79-.3,1.42-1.38,3.91-2.31,5.68,10.62.49,13.22,3.37,13.55,6.09.23,1.94-.74,3.64-2.09,4.2-3.13-2.1-7.07-3.68-14.97-4.5-1.24,1.49-2.31,2.45-3.51,2.59-1.94.23-4.1-2.62-4.36-4.75-.22-1.83.72-2.81,3.64-3.16.66-.08,1.4-.13,2.27-.16.69-1.82,1.24-3.42,1.71-5.09-2.25-.04-4.03-1.09-4.22-2.64Zm10.95-2.35c3.88-2.13,6.15-4.92,5.87-7.17-.15-1.2-1.62-2.01-3.18-1.82-.51.06-1.01.48-1.31,2.25l-1.39,6.75Z"/>
    <path class="cls-1" d="m30.53,95.21c-.28-2.29,2.69-6.79,5.1-7.08,1.79-.22,2.06.74,2.24,2.25.12,1.01-.34,2.72-.84,4.44-.76,2.81-1.12,4.12-1.01,5.01.05.43.26.56.61.52.54-.07,2.14-1.52,4.3-5.53.74-.09,1.59.44,1.68,1.22.3,2.45-5.09,9.76-8.66,10.19-2.29.28-3.19-.64-3.45-2.78-.21-1.71.03-3.35.71-5.88-.4-.7-.59-1.59-.68-2.36Zm5.29-17.51c1.55-.19,3.51,1.31,3.65,2.51.11.93-.44,2.54-2.03,5.05-1.52.18-2.74-.81-3.01-3.06-.38-3.15.14-4.35,1.39-4.5Z"/>
    <path class="cls-1" d="m58.3,75.18c.86-.1,1.56.21,1.67,1.1.16,1.32-.78,3.37-1.72,7.62l-.41,1.82c1.23-.23,2.96-.59,3.45-.77.51.29.88,1.08.95,1.66.18,1.52-1.01,2.76-4.31,3.16l-.66.08c-.53,4.4-.7,7.22-.63,7.8.1.82.4,1.33,1.21,1.23,1.59-.19,4.15-2.83,6.34-6.88.74-.09,1.62.36,1.71,1.13.28,2.33-5.5,10.88-10.28,11.45-2.45.3-3.9-.99-4.26-3.9-.06-.47-.11-1.21-.07-1.85-1.37,3.32-3.66,5.88-6.34,6.21-2.41.29-3.99-1.06-4.38-4.28-.14-1.13-.08-3.93.8-9.04-.79.02-1.46.02-1.56-.84-.15-1.2.58-2.4,2.17-2.63.58-5,1.3-8.12,3.71-8.41,1.36-.16,2.56,1.27,2.76,2.94.15,1.24-.19,2.31-1.06,4.9l5.09-.97c1.44-7.35,3.21-11.23,5.82-11.54Zm-11.97,23.6c.08.66.22.84.57.8,1.59-.19,4.22-4.89,4.93-9.11l-5.01.61c-.53,4.4-.56,7.12-.49,7.71Z"/>
    <path class="cls-1" d="m64.25,81.72c.07-5.33,2.44-8.81,5.51-9.18,1.67-.2,2.81.45,3.05,2.43.21,1.71-.34,3.71-2.59,9.54-.59,3.89-1.6,10.88-1.49,11.85.05.43.26.56.61.52,1.2-.15,3.23-2.64,4.87-6.03.74-.09,1.54.37,1.64,1.14.36,2.95-5.2,9.81-9.12,10.29-2.25.27-3.19-.6-3.43-2.62-.31-2.6.38-7.26.5-8.93.16-2.58.42-6.32.45-9Z"/>
    <path class="cls-1" d="m73.11,94.68c-.71-5.87,3.35-12.43,7.11-12.88,2.68-.32,4.31.78,4.64,3.5.39,3.26-1.2,6.02-6.38,7.87.21,1.75.68,2.68,2.19,2.49,2.64-.32,5.79-2.99,7.59-6.63.94-.07,1.56.48,1.63,1.1.35,2.87-5.39,9.84-10.44,10.45-3.81.46-5.84-1.7-6.35-5.89Zm6.64-8.69c-.54.07-1.43,1.51-1.38,4.27,2.13-.65,2.45-1.91,2.31-3.08-.1-.82-.47-1.24-.93-1.19Z"/>
    <path class="cls-1" d="m98.35,83.07c-.14-1.16.37-2.13,1.31-2.88,1.23.72,2.71,1.21,3.94,1.3,1.11-4.82,2.39-9.55,3.24-11.39,1.1-2.34,2.78-3.37,4.73-3.61,4.55-.55,7.95,2.19,8.36,5.53.47,3.88-2.93,9.03-11.26,12.79-.3,1.42-1.38,3.91-2.31,5.68,10.62.49,13.22,3.37,13.55,6.09.23,1.94-.74,3.64-2.09,4.19-3.13-2.1-7.07-3.68-14.97-4.5-1.24,1.49-2.31,2.45-3.51,2.59-1.94.23-4.1-2.62-4.36-4.75-.22-1.83.73-2.81,3.64-3.16.66-.08,1.4-.13,2.27-.16.69-1.82,1.24-3.42,1.71-5.09-2.25-.04-4.03-1.09-4.22-2.64Zm10.95-2.35c3.88-2.13,6.15-4.92,5.87-7.17-.15-1.2-1.62-2.01-3.18-1.82-.5.06-1.01.48-1.31,2.25l-1.39,6.75Z"/>
    <path class="cls-1" d="m119.95,89.01c-.71-5.87,3.35-12.43,7.11-12.88,2.68-.32,4.31.78,4.64,3.5.39,3.26-1.2,6.02-6.38,7.87.21,1.75.68,2.68,2.19,2.49,2.64-.32,5.79-2.99,7.59-6.63.94-.07,1.56.48,1.63,1.1.35,2.87-5.39,9.84-10.44,10.45-3.81.46-5.84-1.7-6.35-5.89Zm6.64-8.69c-.54.07-1.43,1.51-1.38,4.27,2.13-.65,2.45-1.91,2.31-3.08-.1-.82-.47-1.24-.93-1.19Z"/>
    <path class="cls-1" d="m156.21,71.74c2.56-.31,3.81,1.19,3.96,2.48.12.97-.68,1.9-2.97,3.43.69,1.77,2.76,4.59,3.05,7,.57,4.7-2.82,6.96-6.32,7.39-2.76.33-5.57-.78-5.97-4.09-.23-1.94.87-4.24,3.12-4.52.47-.06.79.02,1.1.26-.04.64,0,1.34.08,2,.2,1.63,1.2,2.1,1.86,2.02.39-.05.79-.33.71-.99-.17-1.44-1.91-4.38-2.86-6.71-2.11,1.12-4.28,2.06-6.6,2.81.39.94,1.12,2.74,1.25,3.79.5,4.16-2.21,6.81-5.94,7.26-3.22.39-7.37-1-8.04-6.52-.33-2.72,1.13-4.04,6.01-5.42-.47-1.24-.83-2.66-.95-3.59-.39-3.26,1.95-5.75,5.48-6.18,2.25-.27,3.69.54,3.92,2.4.1.82-.15,1.67-.56,2.2-.78-.22-1.49-.29-2.12-.22-.82.1-1.21.38-1.13,1.08.09.78.42,1.53.99,2.64,1.93-.63,5.75-2.35,7.16-3.39.4-2.53,2.25-4.84,4.78-5.15Zm-15.07,16.56c-.07-.54-.69-2.08-1.28-3.43-1.87.54-2.61.87-2.55,1.37.18,1.52,2.08,3.18,3.24,3.04.39-.05.67-.32.59-.98Z"/>
    <path class="cls-1" d="m169.82,71.24c-.67-5.52,6.95-12.27,11.54-12.83,2.84-.34,4.77.65,5.17,3.99.37,3.03-1.5,7.16-3.5,14.06-.66,2.33-.81,3.72-.66,5.01.13,1.09.86,1.91,2.14,1.75,1.36-.16,2.44-1.64,3.7-3.92-.87-7.19,1.54-15.32,5.11-15.75,1.67-.2,2.91.63,3.12,2.34.52,4.31-1.65,9.5-3.85,13.79.53,1.43,1.23,2.34,2.2,2.22,3.22-.39,6.96-8.92,6.03-16.61-.26-2.18-1.2-3.44-3.58-5.52.11-1.71,1.33-2.68,3.23-2.91,3.38-.41,5.5,2.49,5.93,5.99,1.27,10.49-4.3,23.11-11.96,24.03-1.94.23-3.74-.65-5.04-2.86-2.18,3.14-4.6,4.66-7.28,4.98-3.92.47-5.92-1.69-6.36-5.3-.18-1.48.06-4.38,1.16-7.67-3.55.31-6.72-1.44-7.12-4.78Zm8.19,1.26c1.23-3.81,2.46-6.68,2.29-8.08-.12-.97-.37-1.1-.87-1.04-1.09.13-4.86,3.5-4.52,6.26.15,1.28.96,2.05,3.1,2.86Z"/>
    <path class="cls-1" d="m212.02,84.19c-2.21.27-4.07-1.36-4.49-4.9-.7-5.83,3.38-12.51,7.26-12.98.54-.07.83-.02,1.04.15l-.16-2.27c.27-.39.75-.6,1.3-.67,2.64-.32,4.3,1.29,4.46,2.65.06.51.06,1.49-.12,2.62-.77,5.06-.98,7.57-.85,8.58.09.78.26.87.57.84.78-.09,2.62-1.81,4.68-5.61.82-.1,1.5.33,1.58,1.03.31,2.53-5.39,9.56-8.18,9.9-1.71.21-2.88-.36-3.18-2.85-.05-.43-.07-.94-.07-1.53-.82,3.69-2.49,4.87-3.85,5.04Zm3.92-15.18c-1.79,1.48-3.27,4.93-2.91,7.92.17,1.44.66,1.54,1.2,1.47s1.04-.52,1.44-1.16l.27-8.23Z"/>
    <path class="cls-1" d="m230.53,82.78c-3.03.37-6.12-1.35-6.58-5.2-.28-2.29-.11-6.14,1.79-6.37,1.36-.16,2.66,1.45,2.78,2.42.1.82-.18,1.44-.75,2.26.52,1.67,1.98,2.68,2.87,2.57.39-.05.79-.33.71-.99-.24-1.98-3.23-7.18-3.52-9.59-.2-1.63.49-3.13,2.48-4.28-.12-.38-.22-.8-.26-1.19-.46-3.85,1.62-6.86,5.77-7.36,2.49-.3,4.91.19,8.23,1.21.72-.91,1.52-1.48,2.45-1.6.85-.1,1.56.2,1.67,1.1.15,1.2-1.02,3.32-1.84,7.59,1.2-.18,2.82-.5,3.31-.68.51.29.87.96.94,1.54.18,1.48-.66,2.72-1.94,2.88-.89.11-1.71.17-2.86.11-.53,4.4-.58,6.61-.51,7.2.11.93.4,1.33,1.21,1.23,1.59-.19,4.05-2.38,6.24-6.43.74-.09,1.62.36,1.71,1.13.28,2.29-4.83,9.97-9.29,10.51-2.99.36-5.2-.95-5.63-4.52-.14-1.13-.03-3.54.85-8.66-.79.02-1.46.02-1.56-.84-.15-1.2.58-2.4,2.17-2.63.4-1.62.85-3.1,1.28-4.37-2.35-.23-4.73-.33-5.97-.18-2.06.25-2.72,1.31-2.57,3.19,2.25-.27,3.59.04,3.73,1.2.18,1.48-1.15,3.88-2.62,4.06-.82.1-1.7-.39-2.47-1.16.31.59.7,1.22,1.13,1.87,2.03,3.11,3.01,5.31,3.21,6.98.49,4.04-2.29,6.51-6.13,6.97Z"/>
    <path class="cls-1" d="m251.51,73.11c-.71-5.87,3.35-12.43,7.11-12.88,2.68-.32,4.31.78,4.64,3.5.39,3.26-1.2,6.02-6.38,7.87.21,1.75.68,2.68,2.19,2.49,2.64-.32,5.79-2.99,7.59-6.63.94-.07,1.56.48,1.63,1.1.35,2.87-5.39,9.84-10.44,10.45-3.81.46-5.84-1.7-6.35-5.89Zm6.64-8.69c-.54.07-1.43,1.51-1.38,4.27,2.13-.65,2.45-1.91,2.31-3.08-.1-.82-.47-1.24-.93-1.19Z"/>
  </g>
  <path class="cls-1" d="m140.51,121.96l-2.34,4.98c-.23.48.02,1.06.53,1.21,3.27.95,14.52,2.7,26.24-13.34.57-.77-.35-1.77-1.16-1.27-5,3.08-14.27,8-22.48,7.92-.34,0-.65.18-.8.49Z"/>
  <path class="cls-1" d="m100.91,53.97l-3.96-.37c-.38-.04-.68-.37-.62-.71.41-2.18,2.8-9.15,16.87-10.33.68-.06,1.04.8.46,1.09-3.57,1.78-9.66,5.37-12.18,10.05-.1.19-.32.31-.57.28Z"/>
</svg>