<?xml version="1.0" encoding="UTF-8"?>
<svg id="Layer_1" data-name="Layer 1" xmlns="http://www.w3.org/2000/svg" viewBox="0 0 88.75 123.42">
  <defs>
    <style>
      .cls-1 {
        fill: #fff;
      }
    </style>
  </defs>
  <circle class="cls-1" cx="42.79" cy="55.27" r="30.11"/>
  <path class="cls-1" d="m0,123.42c0-24.51,19.87-44.38,44.38-44.38s44.38,19.87,44.38,44.38"/>
  <g>
    <path class="cls-1" d="m52.98,8.56s-7.9,13.2-6.35,18.6c.04.15.27.16.33,0,.86-2.16,4.95-11.81,10.24-14.82,0,0,.25-2.59-4.22-3.79Z"/>
    <path class="cls-1" d="m46.63,28.89c-.74-.06-1.37-.58-1.57-1.29-1.69-5.91,5.67-18.47,6.52-19.88,0,0,.35-.94.63-1.05s1.19.32,1.19.32c5.73,1.54,5.43,5.36,5.41,5.52,0,0,.03.66-.08.84s-.73.42-.73.42c-3.77,2.14-7.49,8.88-9.54,14.01-.29.72-1,1.17-1.77,1.13-.02,0-.04,0-.06,0Zm1.56-2.19s0,0,0,0c0,0,0,0,0,0Zm7.11-15.07c-.59-.8-1.84-.66-2.31.22-.82,1.52-1.66,3.22-2.41,4.93,1.38-1.99,2.97-3.85,4.73-5.14,0,0,0,0,0-.01Z"/>
  </g>
  <path class="cls-1" d="m46.08,27.77c-.19.85-1.01,1.39-1.86,1.23h-.02c-7.21-1.36-12.31-6.61-14.74-15.17-1.77-6.25-1.5-12.03-1.49-12.28v-.03c.06-1.09,1.16-1.81,2.18-1.41h.03c20.01,7.78,15.95,27.44,15.9,27.64v.02ZM31.49,7.17c.65,5.56,2.76,13.85,9.43,17.31,1.06.55,2.35-.22,2.34-1.42-.02-4.64-1.4-12.27-9.3-17.4-1.13-.73-2.62.18-2.47,1.52Z"/>
</svg>